<?xml version="1.0" encoding="UTF-8"?>
<svg id="Layer_1" xmlns="http://www.w3.org/2000/svg" version="1.1" xmlns:blush="http://design.blush" viewBox="0 0 720 1351.69">
  <!-- Generator: Adobe Illustrator 29.4.0, SVG Export Plug-In . SVG Version: 2.1.0 Build 152)  -->
  <defs>
    <style>
      .st0, .st1 {
        fill: #141414;
      }

      .st2 {
        fill: #fff;
      }

      .st2, .st3, .st1 {
        fill-rule: evenodd;
      }

      .st3 {
        fill: #256bdc;
      }
    </style>
  </defs>
  <g id="Master_x2F_Stickers_x2F_Phone_2" blush:has-customizable-colors="true" blush:i="0" blush:viewBox="864 289.1276276276276 672.0000000000006 1319.6696696696702">
    <g id="Phone" blush:i="0.0">
      <g id="mobile_frame" blush:i="0.0.0">
        <path id="mobile__x28_Stroke_x29_" class="st1" blush:i="0.0.0.0" d="M612,45.66H108c-31.48,0-57,25.52-57,57v1141c0,31.48,25.52,57,57,57h504c31.48,0,57-25.52,57-57V102.66c0-31.48-25.52-57-57-57ZM108,21.66c-44.73,0-81,36.27-81,81v1141c0,44.74,36.27,81,81,81h504c44.74,0,81-36.26,81-81V102.66c0-44.73-36.26-81-81-81H108Z"/>
      </g>
      <g id="Object" blush:component="Object" blush:defaultValue="Chat" blush:height="650" blush:i="0.0.1" blush:value="Chat" blush:viewBox="133.9415322580645 211.25 380.367943548387 227.49999999999983" blush:width="645">
        <g id="Object_x2F_Chat" blush:i="0.0.1.0" blush:viewBox="133.9415322580645 211.25 380.367943548387 227.49999999999983">
          <g id="bubble" blush:i="0.0.1.0.0">
            <path id="Stroke_1" class="st1" blush:i="0.0.1.0.0.0" d="M318.5,681.85c0-46.59,44.42-84.13,98.98-84.13s98.98,37.54,98.98,84.13c0,28.23-16.47,54.01-43.27,69.54l-.08.05.03,1.03c.43,14.67,3.16,24.61,8.03,27.03l.34.17c2.64,1.37,1.85,5.43-1.2,5.65-12.79.89-23.18-1.96-31.32-7.72-5.23-3.7-9.12-8.29-11.88-13.18l-.05-.1-.34.06c-5.92.99-11.91,1.54-17.95,1.6h-1.29c-54.56,0-98.98-37.54-98.98-84.12ZM510.46,681.85c0-43.03-41.53-78.13-92.98-78.13s-92.98,35.1-92.98,78.13,41.53,78.13,92.98,78.13c6.96,0,13.86-.66,20.65-1.96,1.33-.25,2.66.41,3.25,1.62,2.38,4.85,5.99,9.45,11.08,13.05,5.41,3.83,12.03,6.18,20.04,6.68h.21s-.23-.36-.23-.36c-3.65-6.15-5.23-16-5.39-28.68v-.6c-.02-1.1.58-2.12,1.54-2.65,25.95-14.41,41.84-38.72,41.84-65.23Z"/>
            <path id="Fill_3" class="st1" blush:i="0.0.1.0.0.1" d="M387.68,683.96c0,5.68-4.6,10.28-10.28,10.28s-10.28-4.6-10.28-10.28,4.6-10.28,10.28-10.28,10.28,4.6,10.28,10.28"/>
            <path id="Fill_5" class="st1" blush:i="0.0.1.0.0.2" d="M428.02,683.96c0,5.68-4.6,10.28-10.28,10.28s-10.28-4.6-10.28-10.28,4.6-10.28,10.28-10.28,10.28,4.6,10.28,10.28"/>
            <path id="Fill_7" class="st1" blush:i="0.0.1.0.0.3" d="M468.36,683.96c0,5.68-4.6,10.28-10.28,10.28s-10.28-4.6-10.28-10.28,4.6-10.28,10.28-10.28,10.28,4.6,10.28,10.28"/>
            <path id="Fill_9" class="st3" blush:i="0.0.1.0.0.4" d="M175,651.07c0-44.81,42.97-81.13,95.98-81.13s95.98,36.32,95.98,81.13-42.97,81.13-95.98,81.13c-7.29,0-14.38-.71-21.21-2.01-3.67,7.47-14.63,23.21-41.41,21.35,7.83-3.56,9.89-18.62,10.02-32.61-26.12-14.5-43.38-39.46-43.38-67.85"/>
            <path id="Fill_11" class="st2" blush:i="0.0.1.0.0.5" d="M240.05,654.84c0,5.68-4.6,10.28-10.28,10.28s-10.28-4.6-10.28-10.28,4.6-10.28,10.28-10.28,10.28,4.6,10.28,10.28"/>
            <path id="Fill_13" class="st2" blush:i="0.0.1.0.0.6" d="M280.39,654.84c0,5.68-4.6,10.28-10.28,10.28s-10.28-4.6-10.28-10.28,4.6-10.28,10.28-10.28,10.28,4.6,10.28,10.28"/>
            <path id="Fill_15" class="st2" blush:i="0.0.1.0.0.7" d="M320.73,654.84c0,5.68-4.6,10.28-10.28,10.28s-10.28-4.6-10.28-10.28,4.6-10.28,10.28-10.28,10.28,4.6,10.28,10.28"/>
            <path id="Stroke_17" class="st0" blush:i="0.0.1.0.0.8" d="M498.89,564.35c.58-1.55,2.31-2.34,3.86-1.75,1.5.56,2.28,2.19,1.81,3.7l-.06.17-9.82,26.13c-.58,1.55-2.31,2.34-3.86,1.75-1.49-.56-2.28-2.19-1.81-3.7l.06-.17,9.82-26.13Z"/>
            <path id="Stroke_19" class="st0" blush:i="0.0.1.0.0.9" d="M530.36,587.56c1.28-1.05,3.17-.86,4.22.42,1.01,1.23.88,3.03-.27,4.1l-.14.12-21.06,17.27c-1.28,1.05-3.17.86-4.22-.42-1.01-1.23-.88-3.03.27-4.1l.14-.12,21.06-17.27Z"/>
            <path id="Stroke_21" class="st0" blush:i="0.0.1.0.0.10" d="M546.28,622.71c1.64-.23,3.16.91,3.39,2.55.23,1.58-.83,3.05-2.37,3.36l-.17.03-24.2,3.45c-1.64.23-3.16-.91-3.39-2.55-.23-1.58.83-3.05,2.37-3.36l.17-.03,24.2-3.45Z"/>
          </g>
        </g>
      </g>
    </g>
  </g>
</svg>